<svg width="73" height="100" viewBox="0 0 73 100" fill="none" xmlns="http://www.w3.org/2000/svg">
<path d="M47.4054 36.1174L37.4046 45.4291L28.1213 26.6963L32.917 15.9253C34.1291 13.7767 36.1114 13.7484 37.3235 15.9253L47.4054 36.1174Z" fill="#FFA000"/>
<path d="M37.4088 45.425L0 80.2191L28.1256 26.6963L37.4088 45.425Z" fill="#F57F17"/>
<path d="M58.3712 21.8766C60.163 20.17 62.0075 20.7456 62.4736 23.1698L72.1988 79.7492L39.9424 99.1144C38.8114 99.7468 35.8116 99.9941 35.8116 99.9941C35.8116 99.9941 33.0833 99.6617 32.0375 99.086L0 80.2195L58.3712 21.8766Z" fill="#FFCA28"/>
<path d="M28.1255 26.6965L0 80.2192L12.5345 1.98839C13.0047 -0.435802 14.379 -0.683086 15.6194 1.46545L28.1255 26.6965Z" fill="#FFA000"/>
</svg>
