<svg width="38" height="38" viewBox="0 0 38 38" fill="none" xmlns="http://www.w3.org/2000/svg">
<path d="M7.91663 23.7501H6.33329C5.49344 23.7501 4.68799 23.4164 4.09412 22.8226C3.50026 22.2287 3.16663 21.4233 3.16663 20.5834V6.33341C3.16663 5.49356 3.50026 4.68811 4.09412 4.09424C4.68799 3.50038 5.49344 3.16675 6.33329 3.16675H20.5833C21.4231 3.16675 22.2286 3.50038 22.8225 4.09424C23.4163 4.68811 23.75 5.49356 23.75 6.33341V7.91675M17.4166 14.2501H31.6666C33.4155 14.2501 34.8333 15.6678 34.8333 17.4167V31.6667C34.8333 33.4156 33.4155 34.8334 31.6666 34.8334H17.4166C15.6677 34.8334 14.25 33.4156 14.25 31.6667V17.4167C14.25 15.6678 15.6677 14.2501 17.4166 14.2501Z" stroke="white" stroke-width="4" stroke-linecap="round" stroke-linejoin="round"/>
</svg>
